<?xml version="1.0" encoding="UTF-8" standalone="no"?>
<!DOCTYPE svg PUBLIC "-//W3C//DTD SVG 1.1//EN"
 "http://www.w3.org/Graphics/SVG/1.1/DTD/svg11.dtd">
<!-- Generated by graphviz version 2.38.0 (20140413.2041)
 -->
<!-- Title: %3 Pages: 1 -->
<svg viewBox="0.00 0.00 1000.00 700.00" xmlns="http://www.w3.org/2000/svg" xmlns:xlink="http://www.w3.org/1999/xlink">
<g id="graph0" class="graph" transform="scale(4.16667 4.16667) rotate(0) translate(4 160.5)">
<title>%3</title>
<polygon fill="white" stroke="none" points="-4,4 -4,-160.5 251,-160.5 251,4 -4,4"/>
<!-- table0 -->
<g id="node1" class="node"><title>table0</title>
<polyline fill="none" stroke="black" points="8,-131 112,-131 "/>
<text text-anchor="start" x="53.5" y="-137.8" font-family="Times New Roman,serif" font-size="14.00">s1</text>
<polygon fill="none" stroke="black" points="8,-110 8,-131 78,-131 78,-110 8,-110"/>
<text text-anchor="start" x="27.5" y="-116.8" font-family="Times New Roman,serif" font-size="14.00">nome</text>
<polygon fill="none" stroke="black" points="78,-110 78,-131 112,-131 112,-110 78,-110"/>
<text text-anchor="start" x="81" y="-116.8" font-family="Times New Roman,serif" font-size="14.00">valor</text>
<polygon fill="none" stroke="black" points="8,-89 8,-110 78,-110 78,-89 8,-89"/>
<text text-anchor="start" x="35" y="-95.8" font-family="Times New Roman,serif" font-size="14.00">ptr</text>
<polygon fill="none" stroke="black" points="78,-89 78,-110 112,-110 112,-89 78,-89"/>
<polygon fill="none" stroke="black" points="8,-68 8,-89 78,-89 78,-68 8,-68"/>
<text text-anchor="start" x="19" y="-74.8" font-family="Times New Roman,serif" font-size="14.00">tamanho</text>
<polygon fill="none" stroke="black" points="78,-68 78,-89 112,-89 112,-68 78,-68"/>
<text text-anchor="start" x="91.5" y="-74.8" font-family="Times New Roman,serif" font-size="14.00">5</text>
<polygon fill="none" stroke="black" points="8,-47 8,-68 78,-68 78,-47 8,-47"/>
<text text-anchor="start" x="11" y="-53.8" font-family="Times New Roman,serif" font-size="14.00">capacidade</text>
<polygon fill="none" stroke="black" points="78,-47 78,-68 112,-68 112,-47 78,-47"/>
<text text-anchor="start" x="91.5" y="-53.8" font-family="Times New Roman,serif" font-size="14.00">5</text>
</g>
<!-- table1 -->
<g id="node2" class="node"><title>table1</title>
<polygon fill="none" stroke="black" points="164.5,-109 164.5,-130 205.5,-130 205.5,-109 164.5,-109"/>
<text text-anchor="start" x="167.5" y="-115.8" font-family="Times New Roman,serif" font-size="14.00">índice</text>
<polygon fill="none" stroke="black" points="205.5,-109 205.5,-130 239.5,-130 239.5,-109 205.5,-109"/>
<text text-anchor="start" x="208.5" y="-115.8" font-family="Times New Roman,serif" font-size="14.00">valor</text>
<polygon fill="none" stroke="black" points="164.5,-88 164.5,-109 205.5,-109 205.5,-88 164.5,-88"/>
<text text-anchor="start" x="181.5" y="-94.8" font-family="Times New Roman,serif" font-size="14.00">0</text>
<polygon fill="none" stroke="black" points="205.5,-88 205.5,-109 239.5,-109 239.5,-88 205.5,-88"/>
<text text-anchor="start" x="220.5" y="-94.8" font-family="Times New Roman,serif" font-size="14.00">t</text>
<polygon fill="none" stroke="black" points="164.5,-67 164.5,-88 205.5,-88 205.5,-67 164.5,-67"/>
<text text-anchor="start" x="181.5" y="-73.8" font-family="Times New Roman,serif" font-size="14.00">1</text>
<polygon fill="none" stroke="black" points="205.5,-67 205.5,-88 239.5,-88 239.5,-67 205.5,-67"/>
<text text-anchor="start" x="219" y="-73.8" font-family="Times New Roman,serif" font-size="14.00">e</text>
<polygon fill="none" stroke="black" points="164.5,-46 164.5,-67 205.5,-67 205.5,-46 164.5,-46"/>
<text text-anchor="start" x="181.5" y="-52.8" font-family="Times New Roman,serif" font-size="14.00">2</text>
<polygon fill="none" stroke="black" points="205.5,-46 205.5,-67 239.5,-67 239.5,-46 205.5,-46"/>
<text text-anchor="start" x="219" y="-52.8" font-family="Times New Roman,serif" font-size="14.00">x</text>
<polygon fill="none" stroke="black" points="164.5,-25 164.5,-46 205.5,-46 205.5,-25 164.5,-25"/>
<text text-anchor="start" x="181.5" y="-31.8" font-family="Times New Roman,serif" font-size="14.00">3</text>
<polygon fill="none" stroke="black" points="205.5,-25 205.5,-46 239.5,-46 239.5,-25 205.5,-25"/>
<text text-anchor="start" x="220.5" y="-31.8" font-family="Times New Roman,serif" font-size="14.00">t</text>
<polygon fill="none" stroke="black" points="164.5,-4 164.5,-25 205.5,-25 205.5,-4 164.5,-4"/>
<text text-anchor="start" x="181.5" y="-10.8" font-family="Times New Roman,serif" font-size="14.00">4</text>
<polygon fill="none" stroke="black" points="205.5,-4 205.5,-25 239.5,-25 239.5,-4 205.5,-4"/>
<text text-anchor="start" x="218.5" y="-10.8" font-family="Times New Roman,serif" font-size="14.00">o</text>
</g>
<!-- table0&#45;&gt;table1 -->
<g id="edge1" class="edge"><title>table0:pointer:c&#45;&gt;table1:pointee</title>
<path fill="none" stroke="black" d="M96,-99C96,-99 125.745,-99 153.446,-99"/>
<polygon fill="black" stroke="black" points="153.5,-102.5 163.5,-99 153.5,-95.5001 153.5,-102.5"/>
</g>
</g>
</svg>
