<?xml version="1.0" encoding="UTF-8" standalone="no"?>
<!DOCTYPE svg PUBLIC "-//W3C//DTD SVG 1.1//EN"
 "http://www.w3.org/Graphics/SVG/1.1/DTD/svg11.dtd">
<!-- Generated by graphviz version 2.38.0 (20140413.2041)
 -->
<!-- Title: %3 Pages: 1 -->
<svg  viewBox="0.00 0.00 1000.00 1100.00" xmlns="http://www.w3.org/2000/svg" xmlns:xlink="http://www.w3.org/1999/xlink">
<g id="graph0" class="graph" transform="scale(4.16667 4.16667) rotate(0) translate(4 248)">
<title>%3</title>
<polygon fill="white" stroke="none" points="-4,4 -4,-248 251,-248 251,4 -4,4"/>
<!-- table0 -->
<g id="node1" class="node"><title>table0</title>
<polygon fill="gray" stroke="none" points="8,-135 8,-240 112,-240 112,-135 8,-135"/>
<polyline fill="none" stroke="black" points="8,-218.5 112,-218.5 "/>
<text text-anchor="start" x="53.5" y="-225.3" font-family="Times New Roman,serif" font-size="14.00">s1</text>
<polygon fill="none" stroke="black" points="8,-197.5 8,-218.5 78,-218.5 78,-197.5 8,-197.5"/>
<text text-anchor="start" x="27.5" y="-204.3" font-family="Times New Roman,serif" font-size="14.00">nome</text>
<polygon fill="none" stroke="black" points="78,-197.5 78,-218.5 112,-218.5 112,-197.5 78,-197.5"/>
<text text-anchor="start" x="81" y="-204.3" font-family="Times New Roman,serif" font-size="14.00">valor</text>
<polygon fill="none" stroke="black" points="8,-176.5 8,-197.5 78,-197.5 78,-176.5 8,-176.5"/>
<text text-anchor="start" x="35" y="-183.3" font-family="Times New Roman,serif" font-size="14.00">ptr</text>
<polygon fill="none" stroke="black" points="78,-176.5 78,-197.5 112,-197.5 112,-176.5 78,-176.5"/>
<polygon fill="none" stroke="black" points="8,-155.5 8,-176.5 78,-176.5 78,-155.5 8,-155.5"/>
<text text-anchor="start" x="19" y="-162.3" font-family="Times New Roman,serif" font-size="14.00">tamanho</text>
<polygon fill="none" stroke="black" points="78,-155.5 78,-176.5 112,-176.5 112,-155.5 78,-155.5"/>
<text text-anchor="start" x="91.5" y="-162.3" font-family="Times New Roman,serif" font-size="14.00">5</text>
<polygon fill="none" stroke="black" points="8,-134.5 8,-155.5 78,-155.5 78,-134.5 8,-134.5"/>
<text text-anchor="start" x="11" y="-141.3" font-family="Times New Roman,serif" font-size="14.00">capacidade</text>
<polygon fill="none" stroke="black" points="78,-134.5 78,-155.5 112,-155.5 112,-134.5 78,-134.5"/>
<text text-anchor="start" x="91.5" y="-141.3" font-family="Times New Roman,serif" font-size="14.00">5</text>
</g>
<!-- table1 -->
<g id="node3" class="node"><title>table1</title>
<polygon fill="none" stroke="black" points="164.5,-130.5 164.5,-151.5 205.5,-151.5 205.5,-130.5 164.5,-130.5"/>
<text text-anchor="start" x="167.5" y="-137.3" font-family="Times New Roman,serif" font-size="14.00">índice</text>
<polygon fill="none" stroke="black" points="205.5,-130.5 205.5,-151.5 239.5,-151.5 239.5,-130.5 205.5,-130.5"/>
<text text-anchor="start" x="208.5" y="-137.3" font-family="Times New Roman,serif" font-size="14.00">valor</text>
<polygon fill="none" stroke="black" points="164.5,-109.5 164.5,-130.5 205.5,-130.5 205.5,-109.5 164.5,-109.5"/>
<text text-anchor="start" x="181.5" y="-116.3" font-family="Times New Roman,serif" font-size="14.00">0</text>
<polygon fill="none" stroke="black" points="205.5,-109.5 205.5,-130.5 239.5,-130.5 239.5,-109.5 205.5,-109.5"/>
<text text-anchor="start" x="220.5" y="-116.3" font-family="Times New Roman,serif" font-size="14.00">t</text>
<polygon fill="none" stroke="black" points="164.5,-88.5 164.5,-109.5 205.5,-109.5 205.5,-88.5 164.5,-88.5"/>
<text text-anchor="start" x="181.5" y="-95.3" font-family="Times New Roman,serif" font-size="14.00">1</text>
<polygon fill="none" stroke="black" points="205.5,-88.5 205.5,-109.5 239.5,-109.5 239.5,-88.5 205.5,-88.5"/>
<text text-anchor="start" x="219" y="-95.3" font-family="Times New Roman,serif" font-size="14.00">e</text>
<polygon fill="none" stroke="black" points="164.5,-67.5 164.5,-88.5 205.5,-88.5 205.5,-67.5 164.5,-67.5"/>
<text text-anchor="start" x="181.5" y="-74.3" font-family="Times New Roman,serif" font-size="14.00">2</text>
<polygon fill="none" stroke="black" points="205.5,-67.5 205.5,-88.5 239.5,-88.5 239.5,-67.5 205.5,-67.5"/>
<text text-anchor="start" x="219" y="-74.3" font-family="Times New Roman,serif" font-size="14.00">x</text>
<polygon fill="none" stroke="black" points="164.5,-46.5 164.5,-67.5 205.5,-67.5 205.5,-46.5 164.5,-46.5"/>
<text text-anchor="start" x="181.5" y="-53.3" font-family="Times New Roman,serif" font-size="14.00">3</text>
<polygon fill="none" stroke="black" points="205.5,-46.5 205.5,-67.5 239.5,-67.5 239.5,-46.5 205.5,-46.5"/>
<text text-anchor="start" x="220.5" y="-53.3" font-family="Times New Roman,serif" font-size="14.00">t</text>
<polygon fill="none" stroke="black" points="164.5,-25.5 164.5,-46.5 205.5,-46.5 205.5,-25.5 164.5,-25.5"/>
<text text-anchor="start" x="181.5" y="-32.3" font-family="Times New Roman,serif" font-size="14.00">4</text>
<polygon fill="none" stroke="black" points="205.5,-25.5 205.5,-46.5 239.5,-46.5 239.5,-25.5 205.5,-25.5"/>
<text text-anchor="start" x="218.5" y="-32.3" font-family="Times New Roman,serif" font-size="14.00">o</text>
</g>
<!-- table0&#45;&gt;table1 -->
<g id="edge1" class="edge"><title>table0:pointer:c&#45;&gt;table1:pointee</title>
<path fill="none" stroke="black" d="M96,-186.5C96,-186.5 117.524,-130.884 153.511,-121.76"/>
<polygon fill="black" stroke="black" points="154.016,-125.224 163.5,-120.5 153.141,-118.279 154.016,-125.224"/>
</g>
<!-- table3 -->
<g id="node2" class="node"><title>table3</title>
<polyline fill="none" stroke="black" points="8,-87.5 112,-87.5 "/>
<text text-anchor="start" x="53.5" y="-94.3" font-family="Times New Roman,serif" font-size="14.00">s2</text>
<polygon fill="none" stroke="black" points="8,-66.5 8,-87.5 78,-87.5 78,-66.5 8,-66.5"/>
<text text-anchor="start" x="27.5" y="-73.3" font-family="Times New Roman,serif" font-size="14.00">nome</text>
<polygon fill="none" stroke="black" points="78,-66.5 78,-87.5 112,-87.5 112,-66.5 78,-66.5"/>
<text text-anchor="start" x="81" y="-73.3" font-family="Times New Roman,serif" font-size="14.00">valor</text>
<polygon fill="none" stroke="black" points="8,-45.5 8,-66.5 78,-66.5 78,-45.5 8,-45.5"/>
<text text-anchor="start" x="35" y="-52.3" font-family="Times New Roman,serif" font-size="14.00">ptr</text>
<polygon fill="none" stroke="black" points="78,-45.5 78,-66.5 112,-66.5 112,-45.5 78,-45.5"/>
<polygon fill="none" stroke="black" points="8,-24.5 8,-45.5 78,-45.5 78,-24.5 8,-24.5"/>
<text text-anchor="start" x="19" y="-31.3" font-family="Times New Roman,serif" font-size="14.00">tamanho</text>
<polygon fill="none" stroke="black" points="78,-24.5 78,-45.5 112,-45.5 112,-24.5 78,-24.5"/>
<text text-anchor="start" x="91.5" y="-31.3" font-family="Times New Roman,serif" font-size="14.00">5</text>
<polygon fill="none" stroke="black" points="8,-3.5 8,-24.5 78,-24.5 78,-3.5 8,-3.5"/>
<text text-anchor="start" x="11" y="-10.3" font-family="Times New Roman,serif" font-size="14.00">capacidade</text>
<polygon fill="none" stroke="black" points="78,-3.5 78,-24.5 112,-24.5 112,-3.5 78,-3.5"/>
<text text-anchor="start" x="91.5" y="-10.3" font-family="Times New Roman,serif" font-size="14.00">5</text>
</g>
<!-- table3&#45;&gt;table1 -->
<g id="edge2" class="edge"><title>table3:pointer:c&#45;&gt;table1:pointee</title>
<path fill="none" stroke="black" d="M96,-55.5C96,-55.5 117.784,-110.273 153.575,-119.26"/>
<polygon fill="black" stroke="black" points="153.143,-122.733 163.5,-120.5 154.011,-115.787 153.143,-122.733"/>
</g>
</g>
</svg>
