<?xml version="1.0" encoding="UTF-8" standalone="no"?>
<!DOCTYPE svg PUBLIC "-//W3C//DTD SVG 1.1//EN"
 "http://www.w3.org/Graphics/SVG/1.1/DTD/svg11.dtd">
<!-- Generated by graphviz version 2.38.0 (20140413.2041)
 -->
<!-- Title: %3 Pages: 1 -->
<svg viewBox="0.00 0.00 1600.00 700.00" xmlns="http://www.w3.org/2000/svg" xmlns:xlink="http://www.w3.org/1999/xlink">
<g id="graph0" class="graph" transform="scale(4.16667 4.16667) rotate(0) translate(4 160.5)">
<title>%3</title>
<polygon fill="white" stroke="none" points="-4,4 -4,-160.5 374,-160.5 374,4 -4,4"/>
<!-- table0 -->
<g id="node1" class="node"><title>table0</title>
<polyline fill="none" stroke="black" points="8.5,-131 79.5,-131 "/>
<text text-anchor="start" x="40.5" y="-137.8" font-family="Times New Roman,serif" font-size="14.00">s</text>
<polygon fill="none" stroke="black" points="8.5,-110 8.5,-131 45.5,-131 45.5,-110 8.5,-110"/>
<text text-anchor="start" x="11.5" y="-116.8" font-family="Times New Roman,serif" font-size="14.00">nome</text>
<polygon fill="none" stroke="black" points="45.5,-110 45.5,-131 79.5,-131 79.5,-110 45.5,-110"/>
<text text-anchor="start" x="48.5" y="-116.8" font-family="Times New Roman,serif" font-size="14.00">valor</text>
<polygon fill="none" stroke="black" points="8.5,-89 8.5,-110 45.5,-110 45.5,-89 8.5,-89"/>
<text text-anchor="start" x="19" y="-95.8" font-family="Times New Roman,serif" font-size="14.00">ptr</text>
<polygon fill="none" stroke="black" points="45.5,-89 45.5,-110 79.5,-110 79.5,-89 45.5,-89"/>
</g>
<!-- table1 -->
<g id="node2" class="node"><title>table1</title>
<polyline fill="none" stroke="black" points="131,-131 235,-131 "/>
<text text-anchor="start" x="176.5" y="-137.8" font-family="Times New Roman,serif" font-size="14.00">s1</text>
<polygon fill="none" stroke="black" points="131,-110 131,-131 201,-131 201,-110 131,-110"/>
<text text-anchor="start" x="150.5" y="-116.8" font-family="Times New Roman,serif" font-size="14.00">nome</text>
<polygon fill="none" stroke="black" points="201,-110 201,-131 235,-131 235,-110 201,-110"/>
<text text-anchor="start" x="204" y="-116.8" font-family="Times New Roman,serif" font-size="14.00">valor</text>
<polygon fill="none" stroke="black" points="131,-89 131,-110 201,-110 201,-89 131,-89"/>
<text text-anchor="start" x="158" y="-95.8" font-family="Times New Roman,serif" font-size="14.00">ptr</text>
<polygon fill="none" stroke="black" points="201,-89 201,-110 235,-110 235,-89 201,-89"/>
<polygon fill="none" stroke="black" points="131,-68 131,-89 201,-89 201,-68 131,-68"/>
<text text-anchor="start" x="142" y="-74.8" font-family="Times New Roman,serif" font-size="14.00">tamanho</text>
<polygon fill="none" stroke="black" points="201,-68 201,-89 235,-89 235,-68 201,-68"/>
<text text-anchor="start" x="214.5" y="-74.8" font-family="Times New Roman,serif" font-size="14.00">5</text>
<polygon fill="none" stroke="black" points="131,-47 131,-68 201,-68 201,-47 131,-47"/>
<text text-anchor="start" x="134" y="-53.8" font-family="Times New Roman,serif" font-size="14.00">capacidade</text>
<polygon fill="none" stroke="black" points="201,-47 201,-68 235,-68 235,-47 201,-47"/>
<text text-anchor="start" x="214.5" y="-53.8" font-family="Times New Roman,serif" font-size="14.00">5</text>
</g>
<!-- table0&#45;&gt;table1 -->
<g id="edge2" class="edge"><title>table0:borrower:c&#45;&gt;table1:borrowee</title>
<path fill="none" stroke="black" d="M63.5,-99C63.5,-99 92.5483,-99 119.736,-99"/>
<polygon fill="black" stroke="black" points="120,-102.5 130,-99 120,-95.5001 120,-102.5"/>
</g>
<!-- table2 -->
<g id="node3" class="node"><title>table2</title>
<polygon fill="none" stroke="black" points="287.5,-109 287.5,-130 328.5,-130 328.5,-109 287.5,-109"/>
<text text-anchor="start" x="290.5" y="-115.8" font-family="Times New Roman,serif" font-size="14.00">índice</text>
<polygon fill="none" stroke="black" points="328.5,-109 328.5,-130 362.5,-130 362.5,-109 328.5,-109"/>
<text text-anchor="start" x="331.5" y="-115.8" font-family="Times New Roman,serif" font-size="14.00">valor</text>
<polygon fill="none" stroke="black" points="287.5,-88 287.5,-109 328.5,-109 328.5,-88 287.5,-88"/>
<text text-anchor="start" x="304.5" y="-94.8" font-family="Times New Roman,serif" font-size="14.00">0</text>
<polygon fill="none" stroke="black" points="328.5,-88 328.5,-109 362.5,-109 362.5,-88 328.5,-88"/>
<text text-anchor="start" x="343.5" y="-94.8" font-family="Times New Roman,serif" font-size="14.00">t</text>
<polygon fill="none" stroke="black" points="287.5,-67 287.5,-88 328.5,-88 328.5,-67 287.5,-67"/>
<text text-anchor="start" x="304.5" y="-73.8" font-family="Times New Roman,serif" font-size="14.00">1</text>
<polygon fill="none" stroke="black" points="328.5,-67 328.5,-88 362.5,-88 362.5,-67 328.5,-67"/>
<text text-anchor="start" x="342" y="-73.8" font-family="Times New Roman,serif" font-size="14.00">e</text>
<polygon fill="none" stroke="black" points="287.5,-46 287.5,-67 328.5,-67 328.5,-46 287.5,-46"/>
<text text-anchor="start" x="304.5" y="-52.8" font-family="Times New Roman,serif" font-size="14.00">2</text>
<polygon fill="none" stroke="black" points="328.5,-46 328.5,-67 362.5,-67 362.5,-46 328.5,-46"/>
<text text-anchor="start" x="342" y="-52.8" font-family="Times New Roman,serif" font-size="14.00">x</text>
<polygon fill="none" stroke="black" points="287.5,-25 287.5,-46 328.5,-46 328.5,-25 287.5,-25"/>
<text text-anchor="start" x="304.5" y="-31.8" font-family="Times New Roman,serif" font-size="14.00">3</text>
<polygon fill="none" stroke="black" points="328.5,-25 328.5,-46 362.5,-46 362.5,-25 328.5,-25"/>
<text text-anchor="start" x="343.5" y="-31.8" font-family="Times New Roman,serif" font-size="14.00">t</text>
<polygon fill="none" stroke="black" points="287.5,-4 287.5,-25 328.5,-25 328.5,-4 287.5,-4"/>
<text text-anchor="start" x="304.5" y="-10.8" font-family="Times New Roman,serif" font-size="14.00">4</text>
<polygon fill="none" stroke="black" points="328.5,-4 328.5,-25 362.5,-25 362.5,-4 328.5,-4"/>
<text text-anchor="start" x="341.5" y="-10.8" font-family="Times New Roman,serif" font-size="14.00">o</text>
</g>
<!-- table1&#45;&gt;table2 -->
<g id="edge1" class="edge"><title>table1:pointer:c&#45;&gt;table2:pointee</title>
<path fill="none" stroke="black" d="M219,-99C219,-99 248.745,-99 276.446,-99"/>
<polygon fill="black" stroke="black" points="276.5,-102.5 286.5,-99 276.5,-95.5001 276.5,-102.5"/>
</g>
</g>
</svg>
