<?xml version="1.0" encoding="UTF-8" standalone="no"?>
<!DOCTYPE svg PUBLIC "-//W3C//DTD SVG 1.1//EN"
 "http://www.w3.org/Graphics/SVG/1.1/DTD/svg11.dtd">
<!-- Generated by graphviz version 2.38.0 (20140413.2041)
 -->
<!-- Title: %3 Pages: 1 -->
<svg viewBox="0.00 0.00 1000.00 1300.00" xmlns="http://www.w3.org/2000/svg" xmlns:xlink="http://www.w3.org/1999/xlink">
<g id="graph0" class="graph" transform="scale(4.16667 4.16667) rotate(0) translate(4 288.5)">
<title>%3</title>
<polygon fill="white" stroke="none" points="-4,4 -4,-288.5 251,-288.5 251,4 -4,4"/>
<!-- table0 -->
<g id="node1" class="node"><title>table0</title>
<polyline fill="none" stroke="black" points="16,-128 104,-128 "/>
<text text-anchor="start" x="44" y="-134.8" font-family="Times New Roman,serif" font-size="14.00">longo</text>
<polygon fill="none" stroke="black" points="16,-107 16,-128 70,-128 70,-107 16,-107"/>
<text text-anchor="start" x="27.5" y="-113.8" font-family="Times New Roman,serif" font-size="14.00">nome</text>
<polygon fill="none" stroke="black" points="70,-107 70,-128 104,-128 104,-107 70,-107"/>
<text text-anchor="start" x="73" y="-113.8" font-family="Times New Roman,serif" font-size="14.00">valor</text>
<polygon fill="none" stroke="black" points="16,-86 16,-107 70,-107 70,-86 16,-86"/>
<text text-anchor="start" x="35" y="-92.8" font-family="Times New Roman,serif" font-size="14.00">ptr</text>
<polygon fill="none" stroke="black" points="70,-86 70,-107 104,-107 104,-86 70,-86"/>
<polygon fill="none" stroke="black" points="16,-65 16,-86 70,-86 70,-65 16,-65"/>
<text text-anchor="start" x="19" y="-71.8" font-family="Times New Roman,serif" font-size="14.00">tamanho</text>
<polygon fill="none" stroke="black" points="70,-65 70,-86 104,-86 104,-65 70,-65"/>
<text text-anchor="start" x="83.5" y="-71.8" font-family="Times New Roman,serif" font-size="14.00">5</text>
</g>
<!-- table4 -->
<g id="node3" class="node"><title>table4</title>
<polygon fill="none" stroke="black" points="164.5,-235 164.5,-256 205.5,-256 205.5,-235 164.5,-235"/>
<text text-anchor="start" x="167.5" y="-241.8" font-family="Times New Roman,serif" font-size="14.00">índice</text>
<polygon fill="none" stroke="black" points="205.5,-235 205.5,-256 239.5,-256 239.5,-235 205.5,-235"/>
<text text-anchor="start" x="208.5" y="-241.8" font-family="Times New Roman,serif" font-size="14.00">valor</text>
<polygon fill="none" stroke="black" points="164.5,-214 164.5,-235 205.5,-235 205.5,-214 164.5,-214"/>
<text text-anchor="start" x="181.5" y="-220.8" font-family="Times New Roman,serif" font-size="14.00">0</text>
<polygon fill="none" stroke="black" points="205.5,-214 205.5,-235 239.5,-235 239.5,-214 205.5,-214"/>
<text text-anchor="start" x="220.5" y="-220.8" font-family="Times New Roman,serif" font-size="14.00">t</text>
<polygon fill="none" stroke="black" points="164.5,-193 164.5,-214 205.5,-214 205.5,-193 164.5,-193"/>
<text text-anchor="start" x="181.5" y="-199.8" font-family="Times New Roman,serif" font-size="14.00">1</text>
<polygon fill="none" stroke="black" points="205.5,-193 205.5,-214 239.5,-214 239.5,-193 205.5,-193"/>
<text text-anchor="start" x="219" y="-199.8" font-family="Times New Roman,serif" font-size="14.00">e</text>
<polygon fill="none" stroke="black" points="164.5,-172 164.5,-193 205.5,-193 205.5,-172 164.5,-172"/>
<text text-anchor="start" x="181.5" y="-178.8" font-family="Times New Roman,serif" font-size="14.00">2</text>
<polygon fill="none" stroke="black" points="205.5,-172 205.5,-193 239.5,-193 239.5,-172 205.5,-172"/>
<text text-anchor="start" x="219" y="-178.8" font-family="Times New Roman,serif" font-size="14.00">x</text>
<polygon fill="none" stroke="black" points="164.5,-151 164.5,-172 205.5,-172 205.5,-151 164.5,-151"/>
<text text-anchor="start" x="181.5" y="-157.8" font-family="Times New Roman,serif" font-size="14.00">3</text>
<polygon fill="none" stroke="black" points="205.5,-151 205.5,-172 239.5,-172 239.5,-151 205.5,-151"/>
<text text-anchor="start" x="220.5" y="-157.8" font-family="Times New Roman,serif" font-size="14.00">t</text>
<polygon fill="none" stroke="black" points="164.5,-130 164.5,-151 205.5,-151 205.5,-130 164.5,-130"/>
<text text-anchor="start" x="181.5" y="-136.8" font-family="Times New Roman,serif" font-size="14.00">4</text>
<polygon fill="none" stroke="black" points="205.5,-130 205.5,-151 239.5,-151 239.5,-130 205.5,-130"/>
<text text-anchor="start" x="218.5" y="-136.8" font-family="Times New Roman,serif" font-size="14.00">o</text>
<polygon fill="none" stroke="black" points="164.5,-109 164.5,-130 205.5,-130 205.5,-109 164.5,-109"/>
<text text-anchor="start" x="181.5" y="-115.8" font-family="Times New Roman,serif" font-size="14.00">5</text>
<polygon fill="none" stroke="black" points="205.5,-109 205.5,-130 239.5,-130 239.5,-109 205.5,-109"/>
<text text-anchor="start" x="220.5" y="-115.8" font-family="Times New Roman,serif" font-size="14.00"> </text>
<polygon fill="none" stroke="black" points="164.5,-88 164.5,-109 205.5,-109 205.5,-88 164.5,-88"/>
<text text-anchor="start" x="181.5" y="-94.8" font-family="Times New Roman,serif" font-size="14.00">6</text>
<polygon fill="none" stroke="black" points="205.5,-88 205.5,-109 239.5,-109 239.5,-88 205.5,-88"/>
<text text-anchor="start" x="220.5" y="-94.8" font-family="Times New Roman,serif" font-size="14.00">l</text>
<polygon fill="none" stroke="black" points="164.5,-67 164.5,-88 205.5,-88 205.5,-67 164.5,-67"/>
<text text-anchor="start" x="181.5" y="-73.8" font-family="Times New Roman,serif" font-size="14.00">7</text>
<polygon fill="none" stroke="black" points="205.5,-67 205.5,-88 239.5,-88 239.5,-67 205.5,-67"/>
<text text-anchor="start" x="218.5" y="-73.8" font-family="Times New Roman,serif" font-size="14.00">o</text>
<polygon fill="none" stroke="black" points="164.5,-46 164.5,-67 205.5,-67 205.5,-46 164.5,-46"/>
<text text-anchor="start" x="181.5" y="-52.8" font-family="Times New Roman,serif" font-size="14.00">8</text>
<polygon fill="none" stroke="black" points="205.5,-46 205.5,-67 239.5,-67 239.5,-46 205.5,-46"/>
<text text-anchor="start" x="219" y="-52.8" font-family="Times New Roman,serif" font-size="14.00">n</text>
<polygon fill="none" stroke="black" points="164.5,-25 164.5,-46 205.5,-46 205.5,-25 164.5,-25"/>
<text text-anchor="start" x="181.5" y="-31.8" font-family="Times New Roman,serif" font-size="14.00">9</text>
<polygon fill="none" stroke="black" points="205.5,-25 205.5,-46 239.5,-46 239.5,-25 205.5,-25"/>
<text text-anchor="start" x="219" y="-31.8" font-family="Times New Roman,serif" font-size="14.00">g</text>
<polygon fill="none" stroke="black" points="164.5,-4 164.5,-25 205.5,-25 205.5,-4 164.5,-4"/>
<text text-anchor="start" x="178" y="-10.8" font-family="Times New Roman,serif" font-size="14.00">10</text>
<polygon fill="none" stroke="black" points="205.5,-4 205.5,-25 239.5,-25 239.5,-4 205.5,-4"/>
<text text-anchor="start" x="218.5" y="-10.8" font-family="Times New Roman,serif" font-size="14.00">o</text>
</g>
<!-- table0&#45;&gt;table4 -->
<g id="edge1" class="edge"><title>table0:pointer2:c&#45;&gt;table4:pointee2</title>
<path fill="none" stroke="black" d="M88,-96C88,-96 122.143,-97.6284 153.473,-97.9465"/>
<polygon fill="black" stroke="black" points="153.481,-101.446 163.5,-98 153.519,-94.4466 153.481,-101.446"/>
</g>
<!-- table3 -->
<g id="node2" class="node"><title>table3</title>
<polyline fill="none" stroke="black" points="8,-259 112,-259 "/>
<text text-anchor="start" x="56.5" y="-265.8" font-family="Times New Roman,serif" font-size="14.00">s</text>
<polygon fill="none" stroke="black" points="8,-238 8,-259 78,-259 78,-238 8,-238"/>
<text text-anchor="start" x="27.5" y="-244.8" font-family="Times New Roman,serif" font-size="14.00">nome</text>
<polygon fill="none" stroke="black" points="78,-238 78,-259 112,-259 112,-238 78,-238"/>
<text text-anchor="start" x="81" y="-244.8" font-family="Times New Roman,serif" font-size="14.00">valor</text>
<polygon fill="none" stroke="black" points="8,-217 8,-238 78,-238 78,-217 8,-217"/>
<text text-anchor="start" x="35" y="-223.8" font-family="Times New Roman,serif" font-size="14.00">ptr</text>
<polygon fill="none" stroke="black" points="78,-217 78,-238 112,-238 112,-217 78,-217"/>
<polygon fill="none" stroke="black" points="8,-196 8,-217 78,-217 78,-196 8,-196"/>
<text text-anchor="start" x="19" y="-202.8" font-family="Times New Roman,serif" font-size="14.00">tamanho</text>
<polygon fill="none" stroke="black" points="78,-196 78,-217 112,-217 112,-196 78,-196"/>
<text text-anchor="start" x="88" y="-202.8" font-family="Times New Roman,serif" font-size="14.00">11</text>
<polygon fill="none" stroke="black" points="8,-175 8,-196 78,-196 78,-175 8,-175"/>
<text text-anchor="start" x="11" y="-181.8" font-family="Times New Roman,serif" font-size="14.00">capacidade</text>
<polygon fill="none" stroke="black" points="78,-175 78,-196 112,-196 112,-175 78,-175"/>
<text text-anchor="start" x="88" y="-181.8" font-family="Times New Roman,serif" font-size="14.00">11</text>
</g>
<!-- table3&#45;&gt;table4 -->
<g id="edge2" class="edge"><title>table3:pointer:c&#45;&gt;table4:pointee</title>
<path fill="none" stroke="black" d="M96,-227C96,-227 125.735,-225.414 153.443,-225.067"/>
<polygon fill="black" stroke="black" points="153.523,-228.566 163.5,-225 153.477,-221.566 153.523,-228.566"/>
</g>
</g>
</svg>
